<?xml version="1.0" encoding="UTF-8"?>
<svg width="644px" height="640px" viewBox="0 0 644 640" version="1.1" xmlns="http://www.w3.org/2000/svg" xmlns:xlink="http://www.w3.org/1999/xlink">
    <!-- Generator: Sketch 54.1 (76490) - https://sketchapp.com -->
    <title>Untitled</title>
    <desc>Created with Sketch.</desc>
    <g id="Page-1" stroke="none" stroke-width="1" fill="none" fill-rule="evenodd">
        <g id="icon_logo">
            <g id="a2k2qcq4Vw-link" fill="#000000" fill-rule="nonzero">
                <path d="M483.22,0 C571.58,0 643.22,71.63 643.22,160 C643.22,256 643.22,384 643.22,480 C643.22,568.37 571.58,640 483.22,640 C386.57,640 256.64,640 160,640 C71.63,640 0,568.37 0,480 C0,384 0,256 0,160 C0,71.63 71.63,0 160,0 C256.64,0 386.57,0 483.22,0 Z" id="a2k2qcq4Vw"></path>
            </g>
            <g id="ardAgTlt5" transform="translate(33.000000, 89.000000)" font-family="Helvetica" font-size="384" font-weight="normal">
                <g id="a6Ng6fFvuP-link" fill="#FFFFFF">
                    <g id="a6Ng6fFvuP" transform="translate(0.944138, 0.482759)">
                        <g id="MP">
                            <text>
                                <tspan x="0.22" y="373">MP</tspan>
                            </text>
                        </g>
                    </g>
                </g>
                <g id="a6Ng6fFvuP-link" fill="#000000" fill-opacity="0" stroke="#FFFFFF">
                    <g id="a6Ng6fFvuP" transform="translate(0.944138, 0.482759)">
                        <g id="MP">
                            <text>
                                <tspan x="0.22" y="373">MP</tspan>
                            </text>
                        </g>
                    </g>
                </g>
            </g>
        </g>
    </g>
</svg>